<svg xmlns="http://www.w3.org/2000/svg" width="512" height="260.419" data-name="Layer 2"><path d="M479.703 223.897v26.434h4.266v-26.434zM210.81 223.897l10.113 26.58-.764 2.193c-.423 1.267-.924 2.205-1.479 2.799-.58.607-1.201.958-1.927 1.054-.713.105-1.494.055-2.378-.183l-.436-.119-1.096 3.696c.225.107.609.224 1.163.33q.835.172 1.966.172c1.241 0 2.364-.222 3.354-.645 1.004-.435 1.864-1.124 2.616-2.009.752-.91 1.4-2.072 1.914-3.471l11.633-30.397h-4.635l-5.692 15.674a63 63 0 0 0-1.492 4.873c-.174.663-.351 1.313-.53 1.961-.173-.646-.345-1.294-.513-1.961a57 57 0 0 0-1.517-4.873l-5.626-15.674zM463.543 223.57c-1.875 0-3.539.327-5.03.974-1.466.647-2.643 1.56-3.488 2.735-.858 1.149-1.278 2.482-1.278 4 0 1.862.593 3.38 1.756 4.582 1.161 1.175 2.944 2.059 5.347 2.626l4.383 1.044c1.32.304 2.284.754 2.93 1.362.646.607.964 1.371.964 2.282 0 1.083-.54 2.034-1.663 2.8-1.082.804-2.548 1.188-4.383 1.188-1.571 0-2.919-.344-3.949-1.018-1.043-.673-1.768-1.741-2.137-3.194l-4.04.99c.303 1.506.923 2.786 1.834 3.816.925 1.043 2.086 1.823 3.486 2.364 1.426.528 3.023.778 4.832.778 2.086 0 3.893-.343 5.465-1.03 1.57-.7 2.788-1.638 3.66-2.853.884-1.201 1.305-2.574 1.305-4.132 0-1.81-.58-3.315-1.702-4.516-1.175-1.175-2.944-2.06-5.334-2.615l-4-.95c-1.532-.37-2.668-.843-3.38-1.424-.713-.594-1.072-1.372-1.072-2.376 0-1.096.53-2.009 1.573-2.735 1.056-.726 2.376-1.082 3.947-1.082 1.703 0 2.97.396 3.816 1.161.845.766 1.453 1.626 1.809 2.577l3.856-1.005c-.396-1.228-.978-2.336-1.783-3.287-.806-.964-1.836-1.706-3.103-2.247s-2.812-.816-4.62-.816M436.503 223.57c-2.39 0-4.492.578-6.261 1.74-1.796 1.162-3.18 2.788-4.157 4.848-.99 2.073-1.48 4.463-1.48 7.17 0 2.72.515 5.082 1.506 7.116 1.003 2.046 2.442 3.615 4.277 4.764 1.862 1.135 4.053 1.691 6.614 1.691 1.823 0 3.446-.278 4.873-.846 1.465-.58 2.655-1.345 3.645-2.362a8.6 8.6 0 0 0 2.073-3.5l-4.106-1.135c-.343.898-.807 1.652-1.414 2.273a6.3 6.3 0 0 1-2.218 1.346c-.845.304-1.782.46-2.825.46-1.597 0-3.023-.357-4.238-1.07-1.241-.7-2.178-1.728-2.851-3.088-.617-1.236-.947-2.698-1.007-4.41h19.095v-1.781c0-2.443-.33-4.516-.99-6.206-.661-1.69-1.559-3.037-2.668-4.067a10.5 10.5 0 0 0-3.711-2.247 12.8 12.8 0 0 0-4.157-.697m0 3.789c1.597 0 2.93.368 4.012 1.147 1.057.766 1.876 1.807 2.418 3.154.399 1.002.645 2.098.749 3.301h-14.738c.072-1.2.349-2.338.876-3.38.607-1.268 1.466-2.284 2.601-3.063 1.123-.779 2.497-1.16 4.082-1.16M409.459 223.57c-1.994 0-3.724.514-5.229 1.544-1.16.78-2.11 2.011-2.85 3.666l-.027-4.883h-4.094v26.448h4.266V234.49h-.002c0-1.518.292-2.787.872-3.857.581-1.043 1.386-1.862 2.39-2.404 1.016-.555 2.138-.845 3.406-.845 1.848 0 3.301.582 4.37 1.744 1.057 1.149 1.598 2.746 1.598 4.766v16.452h4.252v-16.807c0-2.231-.382-4.081-1.122-5.56-.766-1.479-1.797-2.589-3.13-3.315-1.347-.74-2.905-1.094-4.7-1.094M379 223.57c-2.402 0-4.517.552-6.326 1.7-1.795 1.123-3.193 2.734-4.21 4.794s-1.52 4.463-1.52 7.21c0 2.72.503 5.11 1.52 7.156 1.017 2.047 2.415 3.63 4.21 4.778 1.81 1.135 3.924 1.691 6.327 1.691 2.39 0 4.501-.556 6.336-1.691 1.81-1.149 3.223-2.731 4.227-4.778 1.003-2.047 1.516-4.436 1.516-7.156 0-2.747-.513-5.15-1.516-7.21s-2.418-3.671-4.227-4.794c-1.835-1.148-3.946-1.7-6.336-1.7m0 3.803c1.77 0 3.235.459 4.384 1.383 1.149.911 1.993 2.128 2.56 3.633.555 1.531.818 3.142.818 4.885s-.263 3.353-.818 4.831c-.568 1.506-1.411 2.706-2.56 3.617-1.149.912-2.614 1.376-4.383 1.376-1.783 0-3.235-.465-4.371-1.376-1.122-.91-1.968-2.111-2.536-3.617-.542-1.478-.819-3.088-.819-4.831 0-1.756.277-3.393.819-4.885.568-1.505 1.414-2.722 2.536-3.633 1.136-.924 2.588-1.383 4.37-1.383M322.155 223.57c-2.007 0-3.752.514-5.257 1.544-1.159.779-2.098 2.01-2.84 3.662l-.007-4.88h-4.108v26.45h4.252v-15.857h-.002c0-1.518.302-2.787.882-3.857a5.96 5.96 0 0 1 2.378-2.404c1.017-.555 2.152-.845 3.42-.845q2.752 0 4.357 1.744c1.07 1.149 1.61 2.746 1.61 4.766v16.452h4.253v-16.807c0-2.231-.382-4.081-1.136-5.56-.739-1.479-1.783-2.589-3.116-3.315-1.36-.74-2.917-1.094-4.686-1.094M71.92 223.57c-1.993 0-3.748.514-5.24 1.544-1.155.783-2.106 2.023-2.845 3.69l-.022-4.907H59.72v26.448h4.264V234.49c0-1.518.278-2.787.872-3.857.594-1.043 1.373-1.862 2.39-2.404 1.016-.555 2.138-.845 3.406-.845 1.848 0 3.301.582 4.37 1.744 1.057 1.149 1.597 2.746 1.597 4.766v16.452h4.239v-16.807c0-2.231-.37-4.081-1.11-5.56s-1.795-2.589-3.129-3.315c-1.346-.74-2.904-1.094-4.7-1.094M501.253 223.555c-1.373 0-2.733.198-4.12.568a11.3 11.3 0 0 0-3.802 1.928c-1.175.91-2.06 2.165-2.76 3.789l4.094 1.334c.29-.607.713-1.214 1.268-1.808s1.294-1.084 2.191-1.467c.898-.41 1.98-.592 3.248-.592 1.215 0 2.243.196 3.075.606a4.24 4.24 0 0 1 1.85 1.782c.398.753.607 1.691.607 2.787v.145c0 .647-.263 1.097-.725 1.374-.476.264-1.23.46-2.22.555a603 603 0 0 0-3.855.473c-1.215.171-2.456.37-3.644.647a12 12 0 0 0-3.34 1.229c-1.004.541-1.81 1.28-2.39 2.23-.607.952-.912 2.167-.912 3.685 0 1.743.397 3.208 1.215 4.423a7.67 7.67 0 0 0 3.236 2.759c1.373.647 2.89.95 4.567.95 1.492 0 2.772-.224 3.842-.66 1.043-.436 1.903-1.002 2.563-1.636.66-.66 1.134-1.295 1.439-1.916h.29v3.605h4.184v-17.428c0-2.073-.328-3.726-1.028-4.967-.687-1.24-1.559-2.164-2.602-2.785a9.3 9.3 0 0 0-3.26-1.268c-1.135-.224-2.153-.342-3.011-.342m5.65 13.574v3.67c0 1.057-.288 2.086-.843 3.063-.581.99-1.414 1.795-2.497 2.402-1.096.633-2.429.94-4 .94-1.043 0-1.992-.158-2.798-.475-.832-.33-1.48-.779-1.956-1.4-.462-.62-.699-1.373-.699-2.31 0-.99.25-1.796.804-2.39.529-.594 1.244-1.03 2.128-1.334a14.6 14.6 0 0 1 2.877-.661c.41-.04.962-.115 1.649-.21.713-.08 1.441-.184 2.193-.316a16 16 0 0 0 2.008-.437c.567-.158.962-.344 1.135-.542M250.078 223.555c-1.36 0-2.72.198-4.134.568a11.3 11.3 0 0 0-3.802 1.928c-1.149.91-2.059 2.165-2.732 3.789l4.091 1.334c.29-.607.714-1.214 1.268-1.808q.833-.892 2.18-1.467c.911-.41 1.993-.592 3.247-.592 1.228 0 2.246.196 3.078.606a4.07 4.07 0 0 1 1.836 1.782c.41.753.632 1.691.632 2.787v.145c0 .647-.238 1.097-.727 1.374-.502.264-1.229.46-2.219.555-.977.12-2.282.275-3.854.473-1.228.171-2.457.37-3.671.647-1.215.264-2.31.674-3.313 1.229-1.004.541-1.809 1.28-2.39 2.23-.607.952-.925 2.167-.925 3.685 0 1.743.41 3.208 1.228 4.423a7.6 7.6 0 0 0 3.234 2.759c1.373.647 2.892.95 4.555.95h.002c1.505 0 2.785-.224 3.828-.66 1.07-.436 1.914-1.002 2.588-1.636.66-.66 1.137-1.295 1.44-1.916h.29v3.605h4.187v-17.428c0-2.073-.357-3.726-1.03-4.967-.687-1.24-1.56-2.164-2.602-2.785-1.044-.646-2.126-1.07-3.262-1.268-1.135-.224-2.126-.342-3.023-.342m5.664 13.574v3.67c0 1.057-.29 2.086-.846 3.063-.58.99-1.412 1.795-2.508 2.402-1.083.633-2.415.94-3.987.94-1.07 0-1.994-.158-2.8-.475-.831-.33-1.493-.779-1.955-1.4s-.7-1.373-.7-2.31c0-.99.267-1.796.795-2.39.541-.594 1.24-1.03 2.138-1.334.885-.304 1.85-.529 2.879-.661.41-.04.965-.115 1.678-.21.687-.08 1.41-.184 2.15-.316a15 15 0 0 0 2.007-.437c.58-.158.951-.344 1.15-.542M169.31 223.555c-1.36 0-2.719.198-4.105.568a11.6 11.6 0 0 0-3.83 1.928c-1.15.91-2.06 2.165-2.733 3.789l4.092 1.334c.277-.607.7-1.214 1.268-1.808q.833-.892 2.18-1.467c.897-.41 1.98-.592 3.247-.592 1.228 0 2.258.196 3.077.606.805.409 1.426 1.003 1.835 1.782.41.753.608 1.691.608 2.787v.145c0 .647-.238 1.097-.713 1.374-.489.264-1.215.46-2.205.555-1.004.12-2.283.275-3.854.473-1.241.171-2.459.37-3.674.647-1.214.264-2.334.674-3.325 1.229a6.3 6.3 0 0 0-2.405 2.23c-.594.952-.896 2.167-.896 3.685 0 1.743.409 3.208 1.201 4.423a7.8 7.8 0 0 0 3.262 2.759c1.373.647 2.878.95 4.555.95 1.505 0 2.773-.224 3.83-.66s1.914-1.002 2.587-1.636c.66-.66 1.133-1.295 1.437-1.916h.291v3.605h4.173v-17.428c0-2.073-.344-3.726-1.03-4.967-.687-1.24-1.559-2.164-2.602-2.785-1.056-.646-2.138-1.07-3.273-1.268-1.11-.224-2.127-.342-2.998-.342m5.64 13.574v3.67a5.9 5.9 0 0 1-.847 3.063c-.555.99-1.4 1.795-2.483 2.402-1.082.633-2.415.94-3.986.94-1.07 0-1.994-.158-2.826-.475-.831-.33-1.466-.779-1.941-1.4s-.714-1.373-.714-2.31c0-.99.28-1.796.82-2.39.542-.594 1.242-1.03 2.127-1.334a15 15 0 0 1 2.877-.661c.422-.04.977-.115 1.664-.21q1.07-.119 2.18-.316a15 15 0 0 0 1.99-.437c.595-.158.966-.344 1.138-.542M42.344 223.555c-1.36 0-2.733.198-4.119.568a11.3 11.3 0 0 0-3.804 1.928c-1.149.91-2.06 2.165-2.733 3.789l4.082 1.334a7.2 7.2 0 0 1 1.252-1.808c.581-.594 1.307-1.084 2.192-1.467.898-.41 1.981-.592 3.235-.592 1.228 0 2.257.196 3.075.606a4.14 4.14 0 0 1 1.865 1.782c.396.753.606 1.691.606 2.787v.145c0 .647-.24 1.097-.715 1.374-.489.264-1.225.46-2.215.555-.99.12-2.272.275-3.87.473-1.215.171-2.441.37-3.67.647-1.188.264-2.31.674-3.3 1.229a6.3 6.3 0 0 0-2.406 2.23c-.594.952-.897 2.167-.897 3.685 0 1.743.384 3.208 1.202 4.423a7.7 7.7 0 0 0 3.248 2.759c1.36.647 2.891.95 4.555.95 1.492 0 2.772-.224 3.842-.66 1.043-.436 1.902-1.002 2.562-1.636.686-.66 1.149-1.295 1.452-1.916h.278v3.605h4.184v-17.428c0-2.073-.355-3.726-1.028-4.967s-1.545-2.164-2.602-2.785c-1.043-.646-2.123-1.07-3.259-1.268-1.109-.224-2.127-.342-3.012-.342m5.65 13.574v3.67c0 1.057-.29 2.086-.845 3.063-.58.99-1.398 1.795-2.48 2.402-1.11.633-2.417.94-4.015.94-1.043 0-1.994-.158-2.8-.475-.831-.33-1.477-.779-1.94-1.4-.475-.62-.713-1.373-.713-2.31 0-.99.264-1.796.805-2.39.528-.594 1.24-1.03 2.138-1.334a14.7 14.7 0 0 1 2.865-.661c.41-.04.965-.115 1.678-.21.713-.08 1.412-.184 2.178-.316.74-.12 1.4-.265 1.995-.437.58-.158.962-.344 1.133-.542M268.18 217.6v6.297h-3.975v3.644h3.975v16.256c0 2.178.634 3.856 1.902 5.058 1.294 1.214 3.064 1.806 5.361 1.806.542 0 1.096-.04 1.65-.117a6.7 6.7 0 0 0 1.505-.344l-.872-3.593c-.343.066-.724.12-1.133.187a7 7 0 0 1-1.033.105c-1.135 0-1.926-.279-2.415-.833-.475-.542-.713-1.398-.713-2.587v-15.938h5.439v-3.644h-5.44V217.6zM356.5 215.105v13.032h-.34a19 19 0 0 0-1.231-1.797c-.554-.713-1.331-1.346-2.348-1.927-1.003-.555-2.365-.844-4.082-.844-2.191 0-4.133.54-5.823 1.662q-2.535 1.644-3.96 4.714c-.965 2.047-1.427 4.464-1.427 7.25 0 2.799.464 5.216 1.414 7.289.951 2.033 2.271 3.629 3.961 4.738 1.69 1.122 3.618 1.677 5.81 1.677 1.69 0 3.035-.277 4.052-.857 1.016-.581 1.81-1.214 2.365-1.968q.853-1.089 1.268-1.822h.474v4.093h4.12v-35.24zm-7.38 12.268c1.61 0 2.983.407 4.08 1.238 1.108.806 1.955 1.954 2.51 3.407.553 1.452.816 3.169.816 5.123 0 1.967-.263 3.684-.844 5.189-.568 1.492-1.4 2.654-2.497 3.5-1.109.844-2.468 1.268-4.065 1.268-1.651 0-3.036-.438-4.146-1.336-1.122-.898-1.967-2.087-2.522-3.605-.555-1.505-.844-3.168-.844-5.016 0-1.822.289-3.485.83-4.95.555-1.493 1.386-2.656 2.495-3.514 1.122-.871 2.51-1.304 4.187-1.304M297.453 215.105v35.24h4.488v-35.24zM186.699 215.105v35.24h4.252v-9.768l2.786-2.61 9.679 12.378h5.453l-11.885-15.084 11.052-11.364h-5.266l-11.304 11.66h-.515v-20.452zM129.066 215.105v35.24h4.488v-13.679h7.606q.418-.002.82-.017l7.326 13.696h5.217l-7.906-14.486c.459-.162.894-.344 1.302-.554 1.77-.898 3.08-2.152 3.95-3.776.86-1.61 1.28-3.445 1.28-5.558 0-2.1-.42-3.962-1.28-5.6-.87-1.637-2.177-2.931-3.96-3.868-1.77-.95-4.015-1.398-6.774-1.398zm4.488 3.934h7.343c1.875 0 3.38.292 4.53.86 1.108.58 1.953 1.386 2.468 2.416.528 1.043.793 2.257.793 3.656q0 2.08-.793 3.565c-.515 1.004-1.333 1.77-2.469 2.31-1.109.542-2.616.833-4.478.833h-7.394zM88.346 215.105v35.24h4.264v-9.77l2.784-2.608 9.667 12.378h5.467l-11.886-15.084 11.054-11.364h-5.269l-11.315 11.66h-.502v-20.452zM1.345 215.105v35.24h12.901c2.773 0 5.03-.42 6.759-1.252 1.73-.806 3-1.943 3.818-3.369.832-1.413 1.214-3.01 1.214-4.78 0-1.835-.369-3.393-1.095-4.686-.726-1.268-1.637-2.259-2.733-2.958-1.109-.687-2.205-1.057-3.3-1.124v-.33c1.016-.276 1.952-.724 2.837-1.291.884-.595 1.586-1.39 2.114-2.367.541-.99.804-2.232.804-3.763 0-1.703-.384-3.271-1.163-4.67-.792-1.427-1.98-2.55-3.564-3.381-1.611-.845-3.63-1.269-6.099-1.269zm4.49 3.974h7.922c2.27 0 3.95.515 5.019 1.584 1.056 1.043 1.583 2.35 1.583 3.869 0 1.215-.29 2.283-.898 3.194-.594.898-1.4 1.586-2.429 2.1-1.03.489-2.164.74-3.432.74H5.835Zm0 15.277h8.53c1.505 0 2.812.303 3.921.897q1.605.912 2.536 2.378c.608 1.004.884 2.098.884 3.274 0 1.531-.568 2.813-1.73 3.882-1.148 1.043-3.116 1.582-5.849 1.582H5.835ZM481.855 213.942c-.819 0-1.504.265-2.084.806-.595.554-.872 1.216-.872 2.009 0 .766.278 1.424.872 1.979.58.555 1.266.831 2.084.831.805 0 1.52-.276 2.086-.831.595-.555.888-1.214.888-1.98 0-.792-.293-1.453-.888-2.008-.567-.542-1.281-.806-2.086-.806M487.85 16.904a2.376 2.376 0 0 0-2.375 2.379v152.566c0 1.32 1.055 2.39 2.376 2.39h21.787c.29 0 .58-.068.765-.172a2.31 2.31 0 0 0 1.597-2.218V19.283a2.37 2.37 0 0 0-2.362-2.379zM357.188 16.904a2.386 2.386 0 0 0-2.378 2.379v152.566c0 1.32 1.07 2.39 2.378 2.39h21.177a2.39 2.39 0 0 0 2.391-2.39v-55.441a2.345 2.345 0 0 1 2.364-2.364h17.125c.754 0 1.479.37 1.914.99l40.906 58.187c.462.621 1.16 1.018 1.94 1.018h24.375c1.915 0 3.035-2.165 1.926-3.75l-38.5-54.796c-.95-1.347-.251-3.248 1.359-3.67 6.18-1.624 11.66-4.04 16.267-7.182 4.622-3.156 8.516-6.88 11.58-11.039 3.063-4.132 5.361-8.806 6.813-13.823a56.7 56.7 0 0 0 2.23-15.66c0-6.919-1.174-13.349-3.432-19.172-2.271-5.73-5.677-10.734-10.153-14.854-4.529-4.159-10.299-7.473-17.125-9.823-6.919-2.364-15.026-3.566-24.124-3.566zm25.932 23.04h33.337c1.954 0 3.843.12 5.784.358 5.981.911 10.907 3.076 14.67 6.47 5.189 4.687 7.83 10.512 7.83 17.325 0 3.314-.555 6.614-1.638 9.77a22.8 22.8 0 0 1-5.255 8.595c-2.376 2.456-5.453 4.462-9.11 5.967S420.67 90.7 415.613 90.7H383.12c-1.32 0-2.364-1.07-2.364-2.39v-46a2.345 2.345 0 0 1 2.364-2.365M233.388 16.904a2.384 2.384 0 0 0-2.375 2.379v152.566c0 1.32 1.068 2.39 2.375 2.39h60.09c9.084 0 17.099-1.254 23.846-3.684 6.668-2.43 12.267-5.796 16.624-10.008 4.37-4.212 7.645-9.176 9.745-14.775 2.125-5.624 3.207-11.778 3.207-18.248 0-8.635-1.993-16.412-5.928-23.12-3.974-6.76-8.635-12.026-13.903-15.683-1.215-.845-1.36-2.59-.317-3.633 1.03-1.03 2.284-2.39 3.697-4.04 1.373-1.57 2.681-3.46 3.91-5.65 1.24-2.153 2.284-4.623 3.156-7.304.845-2.6 1.264-5.437 1.264-8.408 0-5.995-1.028-11.66-3.062-16.85-2.02-5.11-5.162-9.652-9.348-13.468-4.225-3.855-9.585-6.93-15.962-9.123-6.43-2.205-14.076-3.34-22.725-3.34zm25.352 23.04h28.031c5.453 0 10.1.688 13.824 2.061h.01c2.496.964 4.61 2.232 6.22 3.79 4.16 3.987 6.271 8.821 6.271 14.393 0 4.82-.858 8.911-2.574 12.172-1.637 3.116-3.34 5.558-5.03 7.262l-.7.7h-46.055a2.386 2.386 0 0 1-2.376-2.39l.004-35.623a2.38 2.38 0 0 1 2.376-2.364zm0 63.67h36.337c8.833 0 15.5 2.377 19.897 7.091 4.12 4.634 6.206 10.126 6.206 16.345 0 6.47-2.391 12.083-7.052 16.678-4.687 4.581-12.264 6.918-22.55 6.918H258.74a2.386 2.386 0 0 1-2.377-2.378V105.99c0-1.32 1.07-2.376 2.377-2.376M28.217 0C12.623 0 0 12.622 0 28.229v135.35c0 15.608 12.623 28.244 28.217 28.244H163.58c15.593 0 28.243-12.636 28.243-28.243V28.229C191.823 12.622 179.173 0 163.58 0Zm0 22.002h18.352v.095a22.3 22.3 0 0 1 15.395 5.558c.343.304.688.648 1.005.965 8.635 8.622 8.516 21.652-.238 31.766L33.828 92.143c-1.94 2.126-1.94 5.387 0 7.5l28.705 31.53.277.329c8.833 9.625 8.913 22.933.159 31.661-.317.343-.662.65-1.005.953-4.238 3.776-9.691 5.742-15.395 5.584v.095H28.217a6.215 6.215 0 0 1-6.222-6.22V28.22a6.213 6.213 0 0 1 6.222-6.217zm57.276.006h20.282v.095a22.32 22.32 0 0 1 15.409 5.56c.343.304.686.646 1.003.963 8.635 8.622 8.516 21.655-.238 31.768L93.377 92.466a5.605 5.605 0 0 0 .077 7.526l65.27 69.807h-73.23c9.836-16.623 7.618-38-6.668-53.409v-.004L60.18 95.908l18.435-20.28.394-.411c14.062-15.898 16.188-36.823 6.483-53.209Zm59.206.004h18.88a6.22 6.22 0 0 1 6.222 6.217v120.84l-50.083-53.526 18.102-19.911.382-.41c14.062-15.896 16.215-36.824 6.497-53.21" style="fill:#0857c3;fill-opacity:1;fill-rule:nonzero;stroke:none;stroke-width:3.38014"/></svg>