<svg width="830" height="218" viewBox="0 0 830 218" fill="none" xmlns="http://www.w3.org/2000/svg">
<rect width="829.438" height="218" rx="109" fill="white"/>
<path d="M145.377 109.822H168.242C170.533 109.822 172.388 108.127 172.388 106.033V93.7116C172.388 91.617 170.533 89.9219 168.242 89.9219H145.377C143.091 89.9219 141.232 91.617 141.232 93.7116V106.033C141.217 108.127 143.091 109.822 145.377 109.822Z" fill="#009688"/>
<path d="M141.471 132.688C139.904 132.688 138.373 133.152 137.07 134.02C135.768 134.887 134.752 136.12 134.153 137.563C133.554 139.005 133.398 140.592 133.704 142.123C134.01 143.654 134.765 145.06 135.873 146.163C136.982 147.267 138.394 148.018 139.931 148.322C141.468 148.626 143.061 148.47 144.509 147.872C145.956 147.275 147.194 146.263 148.064 144.965C148.935 143.667 149.399 142.141 149.399 140.581C149.399 139.544 149.194 138.517 148.796 137.559C148.397 136.601 147.813 135.731 147.077 134.998C146.341 134.265 145.467 133.684 144.505 133.287C143.543 132.891 142.512 132.687 141.471 132.688ZM141.441 144.012C140.758 144.012 140.089 143.81 139.521 143.431C138.953 143.053 138.51 142.515 138.248 141.886C137.987 141.257 137.919 140.564 138.052 139.896C138.186 139.228 138.515 138.615 138.999 138.134C139.483 137.653 140.099 137.325 140.77 137.193C141.44 137.06 142.135 137.129 142.767 137.39C143.398 137.651 143.938 138.093 144.317 138.66C144.696 139.226 144.898 139.892 144.897 140.573C144.897 141.025 144.808 141.472 144.634 141.89C144.461 142.307 144.206 142.687 143.885 143.006C143.564 143.325 143.183 143.579 142.764 143.751C142.344 143.924 141.895 144.012 141.441 144.012Z" fill="#009688"/>
<path d="M200.865 32H81.7411C77.0358 32 72.5233 33.8618 69.1962 37.1759C65.8691 40.49 64 44.9848 64 49.6716V168.328C64 173.015 65.8691 177.51 69.1962 180.824C72.5233 184.138 77.0358 186 81.7411 186H200.865C205.57 186 210.082 184.138 213.409 180.824C216.736 177.51 218.606 173.015 218.606 168.328V49.6716C218.606 44.9848 216.736 40.49 213.409 37.1759C210.082 33.8618 205.57 32 200.865 32ZM104.906 68.4147C104.906 67.2165 105.384 66.0674 106.234 65.2202C107.085 64.3729 108.239 63.897 109.442 63.897H137.041C138.244 63.897 139.397 64.3729 140.248 65.2202C141.099 66.0674 141.576 67.2165 141.576 68.4147V74.9039C141.576 76.1021 141.099 77.2512 140.248 78.0984C139.397 78.9457 138.244 79.4217 137.041 79.4217H109.427C108.224 79.4217 107.07 78.9457 106.219 78.0984C105.369 77.2512 104.891 76.1021 104.891 74.9039L104.906 68.4147ZM104.644 88.5207C104.644 87.3106 105.126 86.1501 105.985 85.2945C106.844 84.4388 108.009 83.9581 109.224 83.9581H173.801C175.015 83.9591 176.18 84.4402 177.038 85.2958C177.896 86.1513 178.378 87.3113 178.378 88.5207V117.897C178.378 119.106 177.896 120.266 177.038 121.121C176.179 121.976 175.015 122.456 173.801 122.456H109.209C107.995 122.456 106.831 121.976 105.972 121.121C105.113 120.266 104.63 119.107 104.629 117.897L104.644 88.5207ZM186.898 149.518C186.895 150.732 186.409 151.895 185.546 152.753C184.683 153.61 183.514 154.092 182.295 154.092H100.303C99.6995 154.092 99.102 153.973 98.5444 153.743C97.9869 153.513 97.4803 153.176 97.0535 152.751C96.6268 152.326 96.2883 151.821 96.0573 151.266C95.8264 150.711 95.7075 150.115 95.7075 149.514V131.634C95.7075 131.033 95.8264 130.437 96.0573 129.882C96.2883 129.327 96.6268 128.822 97.0535 128.397C97.4803 127.972 97.9869 127.635 98.5444 127.405C99.102 127.175 99.6995 127.056 100.303 127.056H182.295C183.516 127.056 184.687 127.539 185.55 128.399C186.413 129.259 186.898 130.425 186.898 131.641V149.518Z" fill="#009688"/>
<path d="M273.062 101.384H276.383C279.317 101.384 281.551 100.408 283.085 98.4565L307.667 66.7873C308.601 65.4434 309.902 64.3939 311.415 63.763C312.978 63.2065 314.629 62.9382 316.288 62.9715H332.249L301.092 101.193C300.223 102.31 299.238 103.332 298.154 104.244C297.207 105.028 296.181 105.711 295.091 106.282C296.41 106.765 297.615 107.51 298.634 108.474C299.718 109.55 300.595 110.816 301.22 112.208L323.013 155.254H306.584C304.455 155.254 302.922 154.946 301.985 154.331C301.017 153.688 300.241 152.798 299.736 151.755L282.83 118.249C282.379 117.17 281.553 116.29 280.503 115.77C279.503 115.304 278.087 115.07 276.256 115.068H271.383L266.412 155.254H248.045L259.336 62.9043H277.853L273.062 101.384Z" fill="#009688"/>
<path d="M368.923 102.515C366.488 102.161 364.03 101.982 361.569 101.981C356.914 101.952 352.303 102.874 348.02 104.69C343.737 106.506 339.874 109.178 336.668 112.54C334.589 114.705 332.795 117.125 331.331 119.742C328.334 125.108 326.768 131.15 326.784 137.291C326.732 140.09 327.12 142.881 327.934 145.561C328.58 147.7 329.648 149.689 331.076 151.412C332.331 152.901 333.912 154.083 335.697 154.869C337.444 155.632 339.331 156.022 341.237 156.015C344.516 156.035 347.72 155.039 350.406 153.166C353.383 151.062 355.938 148.422 357.94 145.382L357.738 150.732C357.733 151.332 357.801 151.93 357.94 152.513C358.073 153.04 358.33 153.527 358.69 153.936C359.082 154.368 359.573 154.699 360.122 154.903C360.831 155.166 361.584 155.293 362.341 155.276H369.838L376.169 104.397C373.827 103.517 371.398 102.886 368.923 102.515ZM348.704 143.421L346.909 145.363C346.807 145.474 346.673 145.55 346.526 145.58C346.378 145.61 346.225 145.593 346.088 145.531L339.821 142.731C339.683 142.669 339.569 142.566 339.494 142.436C339.418 142.306 339.386 142.156 339.401 142.006L339.667 139.393C339.678 139.28 339.715 139.172 339.776 139.076C339.838 138.981 339.921 138.902 340.019 138.845C340.118 138.789 340.228 138.756 340.342 138.751C340.455 138.745 340.568 138.767 340.671 138.814L348.472 142.298C348.573 142.345 348.662 142.415 348.731 142.503C348.8 142.59 348.848 142.693 348.87 142.802C348.893 142.911 348.89 143.023 348.861 143.131C348.832 143.239 348.778 143.338 348.704 143.421ZM356.43 135.599C352.175 137.724 350.77 139.333 350.312 140.132C350.236 140.266 350.111 140.367 349.963 140.414C349.815 140.461 349.655 140.451 349.514 140.386L342.152 136.951C341.994 136.88 341.863 136.762 341.777 136.612C341.69 136.463 341.654 136.29 341.672 136.118C341.75 135.145 341.706 134.165 341.541 133.202C341.327 131.765 341.095 130.144 340.915 128.472C340.915 128.371 340.855 128.281 340.844 128.177C340.746 126.993 340.368 119.474 346.493 116.319C352.996 112.958 361.19 115.049 362.431 124.159C362.746 126.556 362.037 132.81 356.43 135.599Z" fill="#009688"/>
<path d="M387.339 130.626C388.836 131.618 390.46 132.406 392.167 132.967C393.902 133.546 395.51 134.136 396.991 134.748C397.463 134.942 397.902 135.151 398.325 135.368C403.198 134.939 408.66 134.431 414.353 133.841C414.142 132.816 413.762 131.834 413.229 130.932C412.274 129.376 410.996 128.041 409.481 127.016C407.971 125.992 406.342 125.155 404.63 124.522C402.881 123.874 401.257 123.239 399.757 122.614C398.42 122.079 397.165 121.36 396.028 120.478C395.545 120.102 395.158 119.618 394.898 119.065C394.637 118.513 394.511 117.907 394.528 117.297C394.516 116.522 394.679 115.755 395.003 115.051C395.327 114.347 395.805 113.724 396.402 113.227C397.652 112.139 399.551 111.597 402.1 111.599C403.303 111.575 404.502 111.747 405.65 112.107C406.567 112.41 407.463 112.776 408.33 113.201C409.114 113.589 409.822 113.954 410.451 114.295C411.037 114.623 411.696 114.797 412.367 114.803C412.878 114.822 413.383 114.692 413.821 114.429C414.296 114.092 414.703 113.669 415.021 113.182L418.649 108.198C416.734 106.302 414.472 104.79 411.984 103.744C409.083 102.53 405.959 101.932 402.812 101.989C399.767 101.93 396.74 102.466 393.902 103.568C391.507 104.518 389.325 105.933 387.485 107.731C385.775 109.418 384.428 111.434 383.527 113.657C382.631 115.846 382.171 118.188 382.174 120.553C382.174 123.166 382.673 125.252 383.673 126.81C384.609 128.327 385.859 129.628 387.339 130.626Z" fill="#009688"/>
<path d="M400.672 136.865L400.694 136.883C401.694 137.697 402.194 138.851 402.194 140.345C402.195 141.15 402.031 141.947 401.71 142.686C401.377 143.444 400.87 144.114 400.23 144.642C399.504 145.235 398.672 145.685 397.778 145.967C396.695 146.305 395.565 146.468 394.431 146.449C393.049 146.496 391.672 146.281 390.371 145.814C389.435 145.443 388.536 144.983 387.687 144.44C386.938 143.948 386.259 143.492 385.645 143.066C385.047 142.646 384.333 142.424 383.602 142.432C382.87 142.41 382.146 142.585 381.506 142.939C380.904 143.294 380.391 143.78 380.007 144.362L376.536 149.589C377.381 150.56 378.352 151.415 379.422 152.132C380.625 152.947 381.909 153.638 383.253 154.193C384.703 154.799 386.21 155.259 387.751 155.567C389.355 155.891 390.988 156.054 392.624 156.052C395.739 156.095 398.836 155.577 401.766 154.525C404.329 153.606 406.695 152.212 408.738 150.418C410.629 148.737 412.136 146.672 413.158 144.362C414.18 142.055 414.703 139.559 414.691 137.036C414.691 136.973 414.691 136.917 414.691 136.854L400.672 136.865Z" fill="#009688"/>
<path d="M429.171 93.8901C429.927 94.6672 430.829 95.29 431.825 95.7233C432.815 96.1608 433.886 96.3859 434.969 96.3842C436.067 96.3822 437.152 96.1573 438.159 95.7233C439.187 95.2917 440.123 94.6696 440.918 93.8901C441.718 93.1113 442.375 92.1989 442.86 91.1943C443.361 90.1635 443.618 89.0316 443.609 87.8863C443.618 86.7378 443.375 85.6012 442.897 84.5558C442.439 83.5451 441.805 82.6235 441.023 81.834C440.24 81.0529 439.312 80.4304 438.291 80.0007C437.265 79.5632 436.16 79.3383 435.044 79.3399C433.96 79.338 432.888 79.5725 431.903 80.0269C430.911 80.481 430.011 81.1139 429.249 81.8937C428.471 82.6859 427.837 83.6069 427.375 84.6156C426.901 85.6449 426.656 86.7647 426.659 87.8975C426.65 89.0365 426.885 90.1643 427.349 91.2055C427.791 92.201 428.408 93.1101 429.171 93.8901Z" fill="#009688"/>
<path d="M437.143 131.122L440.517 102.795H426.641L423.038 132.896C427.784 132.355 432.552 131.761 437.143 131.122Z" fill="#009688"/>
<path d="M422.562 136.845L420.358 155.252H434.254L436.458 136.838L422.562 136.845Z" fill="#009688"/>
<path d="M476.138 102.516C474.396 102.694 472.718 103.269 471.235 104.196C469.488 105.29 467.928 106.655 466.613 108.24C464.991 110.179 463.578 112.283 462.396 114.516L462.603 107.243C462.603 105.682 462.194 104.546 461.377 103.834C460.56 103.121 459.416 102.763 457.955 102.763H450.701L447.44 129.559C453.415 128.54 458.685 127.431 462.711 126.236C463.12 125.102 463.596 123.992 464.136 122.913C465.328 120.571 466.663 118.79 468.143 117.57C469.51 116.395 471.216 115.683 473.016 115.535C474.956 115.434 476.892 115.8 478.661 116.603L481.213 103.427C479.629 102.692 477.88 102.378 476.138 102.516Z" fill="#009688"/>
<path d="M446.556 136.836L444.307 155.254H458.149L460.398 136.828L446.556 136.836Z" fill="#009688"/>
<path d="M513.116 81.4277C517.406 81.4277 521.085 81.9442 524.151 82.9772C526.955 83.864 529.54 85.3296 531.738 87.2784C533.702 89.0694 535.208 91.3019 536.131 93.79C537.084 96.4155 537.559 99.1897 537.533 101.982C537.568 105.752 536.934 109.498 535.658 113.048C534.463 116.347 532.542 119.337 530.036 121.8C527.537 124.259 524.378 126.184 520.56 127.572C516.742 128.961 512.264 129.657 507.126 129.66H498.504L495.337 155.254H480.632L489.673 81.4277H513.116ZM508.558 118.417C510.764 118.474 512.959 118.093 515.016 117.297C516.706 116.623 518.206 115.549 519.387 114.169C520.543 112.767 521.387 111.136 521.864 109.386C522.41 107.388 522.676 105.325 522.655 103.255C522.671 101.795 522.447 100.342 521.992 98.9537C521.573 97.6935 520.883 96.5392 519.971 95.571C519.017 94.5867 517.845 93.8376 516.549 93.383C514.982 92.8497 513.332 92.5969 511.676 92.6363H503.096L499.876 118.432L508.558 118.417Z" fill="#F9AC1B"/>
<path d="M558.374 102.794L552.091 155.253H538.196L544.482 102.794H558.374ZM561.44 87.8858C561.448 89.0311 561.191 90.163 560.69 91.1938C560.207 92.1991 559.55 93.1117 558.748 93.8895C557.954 94.6682 557.02 95.2902 555.993 95.7228C554.985 96.1565 553.898 96.3814 552.8 96.3837C551.718 96.3853 550.648 96.1602 549.659 95.7228C548.662 95.2886 547.76 94.666 547.001 93.8895C546.232 93.1076 545.61 92.1945 545.164 91.1938C544.699 90.1532 544.464 89.025 544.475 87.8858C544.47 86.7533 544.713 85.6334 545.187 84.6038C545.648 83.5952 546.283 82.6742 547.061 81.882C547.823 81.1022 548.722 80.4693 549.715 80.0151C550.699 79.5612 551.771 79.3268 552.856 79.3281C553.972 79.3263 555.076 79.5511 556.102 79.989C557.123 80.4187 558.051 81.0412 558.835 81.8222C559.618 82.6108 560.252 83.5326 560.709 84.5441C561.194 85.5915 561.444 86.7321 561.44 87.8858Z" fill="#F9AC1B"/>
<path d="M580.234 112.768C582.858 109.104 585.732 106.391 588.855 104.629C591.812 102.904 595.175 101.991 598.601 101.981C600.65 101.957 602.677 102.414 604.516 103.314C606.297 104.207 607.818 105.538 608.935 107.182C610.189 109.074 611.033 111.205 611.413 113.44C611.895 116.25 611.929 119.118 611.514 121.938L607.515 155.254H593.47L597.394 121.927C597.802 118.773 597.648 116.543 596.933 115.236C596.221 113.929 594.958 113.276 593.155 113.276C591.749 113.306 590.376 113.701 589.17 114.422C587.693 115.28 586.365 116.37 585.238 117.652C583.88 119.185 582.714 120.876 581.763 122.688C580.662 124.771 579.805 126.974 579.211 129.252L576.298 155.254H562.201L568.532 102.743H575.732C577.199 102.743 578.34 103.1 579.155 103.815C579.969 104.529 580.378 105.665 580.38 107.223L580.234 112.768Z" fill="#F9AC1B"/>
<path d="M620.537 144.262V143.422C620.537 143.101 620.563 142.626 620.615 141.999C620.668 141.372 620.753 140.54 620.87 139.505C620.986 138.471 621.151 137.123 621.354 135.461L624.165 112.869H619.566C619.253 112.88 618.942 112.821 618.655 112.698C618.368 112.575 618.112 112.389 617.905 112.156C617.482 111.682 617.336 110.972 617.471 110.02L618.138 104.524L626.103 103.001L630.447 89.4138C630.922 87.8854 631.96 87.1225 633.562 87.125H641.123L639.129 103.101H651.438L650.265 112.869H637.955L635.253 134.696C635.08 136.087 634.944 137.19 634.844 138.004C634.739 138.818 634.664 139.445 634.612 139.871C634.559 140.297 634.537 140.618 634.537 140.763V141.092C634.482 142.099 634.77 143.095 635.354 143.918C635.896 144.613 636.713 144.96 637.805 144.96C638.336 144.978 638.867 144.909 639.376 144.758C639.775 144.625 640.16 144.453 640.527 144.247C640.849 144.06 641.149 143.873 641.423 143.739C641.686 143.588 641.985 143.51 642.289 143.511C642.636 143.481 642.982 143.581 643.259 143.791C643.522 144.063 643.731 144.383 643.874 144.732L646.937 151.453C644.987 152.963 642.794 154.132 640.452 154.91C638.157 155.683 635.752 156.079 633.33 156.083C629.449 156.083 626.377 155.04 624.113 152.954C621.849 150.868 620.657 147.971 620.537 144.262Z" fill="#F9AC1B"/>
<path d="M693.428 102.515C690.991 102.161 688.532 101.982 686.07 101.981C681.415 101.952 676.804 102.874 672.521 104.69C668.238 106.506 664.375 109.178 661.169 112.54C656.979 116.904 653.982 122.264 652.462 128.11C651.675 131.107 651.281 134.193 651.288 137.291C651.237 140.09 651.624 142.88 652.435 145.561C653.084 147.699 654.152 149.687 655.576 151.412C656.832 152.902 658.415 154.085 660.202 154.869C661.948 155.633 663.835 156.023 665.742 156.015C669.021 156.034 672.224 155.038 674.911 153.166C677.886 151.06 680.441 148.42 682.445 145.382L682.239 150.725C682.235 151.324 682.304 151.922 682.445 152.505C682.575 153.033 682.832 153.522 683.195 153.928C683.586 154.36 684.075 154.692 684.623 154.895C685.333 155.158 686.088 155.285 686.845 155.268H694.342L700.677 104.389C698.334 103.511 695.904 102.883 693.428 102.515ZM673.46 143.421L671.665 145.363C671.563 145.474 671.429 145.55 671.282 145.58C671.134 145.61 670.981 145.593 670.844 145.531L664.576 142.731C664.439 142.669 664.325 142.566 664.249 142.436C664.174 142.306 664.142 142.156 664.157 142.006L664.419 139.393C664.43 139.28 664.468 139.172 664.53 139.076C664.592 138.981 664.675 138.902 664.774 138.846C664.872 138.789 664.983 138.757 665.097 138.751C665.21 138.746 665.324 138.767 665.427 138.814L673.228 142.298C673.329 142.345 673.417 142.415 673.487 142.503C673.556 142.59 673.604 142.693 673.626 142.802C673.649 142.911 673.645 143.023 673.617 143.131C673.588 143.239 673.534 143.338 673.46 143.421ZM681.182 135.599C676.931 137.724 675.525 139.333 675.064 140.132C674.988 140.266 674.864 140.367 674.717 140.414C674.57 140.461 674.41 140.451 674.27 140.386L666.908 136.951C666.75 136.879 666.619 136.761 666.532 136.612C666.446 136.462 666.408 136.29 666.424 136.118C666.506 135.145 666.463 134.165 666.297 133.202C666.083 131.765 665.851 130.144 665.671 128.472C665.671 128.371 665.611 128.281 665.6 128.177C665.502 126.993 665.12 119.473 671.248 116.319C677.752 112.958 685.946 115.049 687.187 124.159C687.513 126.556 686.793 132.81 681.182 135.599Z" fill="#F9AC1B"/>
<path d="M722.032 114.515C723.214 112.289 724.626 110.192 726.245 108.257C727.561 106.672 729.122 105.307 730.87 104.213C732.353 103.286 734.031 102.711 735.773 102.533C737.508 102.393 739.249 102.7 740.83 103.426L738.273 116.602C736.512 115.802 734.584 115.436 732.651 115.534C730.851 115.681 729.145 116.393 727.778 117.569C726.299 118.791 724.962 120.572 723.767 122.912C722.402 125.738 721.357 128.707 720.652 131.764L717.792 155.287H703.949L710.322 102.776H717.579C719.04 102.776 720.184 103.149 721.001 103.847C721.818 104.546 722.227 105.696 722.227 107.256L722.032 114.515Z" fill="#F9AC1B"/>
<path d="M754.418 110.538C760.504 110.538 765.438 105.624 765.438 99.561C765.438 93.4986 760.504 88.584 754.418 88.584C748.331 88.584 743.397 93.4986 743.397 99.561C743.397 105.624 748.331 110.538 754.418 110.538Z" stroke="#F9AC1B" stroke-width="1.125" stroke-miterlimit="10"/>
<path d="M749.972 105.199V93.92H754.564C755.3 93.8986 756.031 94.0468 756.7 94.3531C757.266 94.6213 757.744 95.0432 758.08 95.5703C758.407 96.1419 758.572 96.7913 758.556 97.4491C758.541 98.1068 758.347 98.748 757.994 99.304C757.603 99.8695 757.041 100.295 756.389 100.517L758.852 105.181H756.228L753.979 100.835H752.311V105.181L749.972 105.199ZM754.534 95.9474H752.33V98.9344H754.534C754.756 98.9468 754.978 98.9157 755.187 98.8427C755.397 98.7696 755.59 98.6561 755.756 98.5087C755.9 98.3742 756.014 98.2109 756.091 98.0295C756.168 97.8481 756.206 97.6527 756.202 97.4558C756.206 97.2562 756.169 97.0578 756.092 96.8733C756.015 96.6889 755.901 96.5223 755.756 96.3842C755.592 96.2336 755.399 96.1173 755.189 96.0422C754.979 95.9672 754.756 95.9349 754.534 95.9474Z" fill="#F9AC1B"/>
</svg>
