<svg width="512" height="512" viewBox="0 0 512 512" fill="none" xmlns="http://www.w3.org/2000/svg">
<rect x="24" y="24" width="464" height="464" stroke="url(#paint0_linear_1101_5)" stroke-width="48"/>
<path d="M242.818 364H169.376V147.273H244.3C265.817 147.273 284.301 151.612 299.751 160.289C315.272 168.896 327.195 181.277 335.52 197.433C343.845 213.589 348.007 232.92 348.007 255.425C348.007 278 343.809 297.402 335.414 313.628C327.089 329.854 315.061 342.306 299.328 350.984C283.666 359.661 264.83 364 242.818 364ZM208.637 330.031H240.913C256.011 330.031 268.604 327.279 278.692 321.776C288.781 316.203 296.365 307.913 301.445 296.908C306.524 285.831 309.064 272.004 309.064 255.425C309.064 238.846 306.524 225.089 301.445 214.153C296.365 203.148 288.852 194.929 278.904 189.496C269.027 183.994 256.752 181.242 242.077 181.242H208.637V330.031Z" fill="#34D399"/>
<defs>
<linearGradient id="paint0_linear_1101_5" x1="512" y1="0" x2="0" y2="512" gradientUnits="userSpaceOnUse">
<stop stop-color="#30B0C1"/>
<stop offset="1" stop-color="#34D399"/>
</linearGradient>
</defs>
</svg>
